ffmpeg started on 2016-12-12 at 07:25:17
Report written to "Output/theora/results/ffmpeg/sintel8000k.log"
Command line:
Tools/ffmpeg/ffmpeg -benchmark -y -i Input/y4m/sintel.y4m -c:v libtheora -b:v 8000k -an Output/theora/encoded/sintel8000k.mkv
ffmpeg version N-82227-gdb23fde Copyright (c) 2000-2016 the FFmpeg developers
  built with gcc 5.4.0 (Ubuntu 5.4.0-6ubuntu1~16.04.2) 20160609
  configuration: --prefix=/home/jaroslav/ffmpeg_build --pkg-config-flags=--static --extra-cflags=-I/home/jaroslav/ffmpeg_build/include --extra-ldflags=-L/home/jaroslav/ffmpeg_build/lib --bindir=/home/jaroslav/bin --enable-gpl --enable-libass --enable-libfdk-aac --enable-libfreetype --enable-libmp3lame --enable-libopus --enable-libtheora --enable-libvorbis --enable-libvpx --enable-libx264 --enable-libx265 --enable-nvenc --enable-libmfx --enable-libxvid --enable-libgsm --enable-libopencore-amrnb --enable-version3 --enable-nonfree
  libavutil      55. 35.100 / 55. 35.100
  libavcodec     57. 66.101 / 57. 66.101
  libavformat    57. 57.100 / 57. 57.100
  libavdevice    57.  2.100 / 57.  2.100
  libavfilter     6. 66.100 /  6. 66.100
  libswscale      4.  3.100 /  4.  3.100
  libswresample   2.  4.100 /  2.  4.100
  libpostproc    54.  2.100 / 54.  2.100
Input #0, yuv4mpegpipe, from 'Input/y4m/sintel.y4m':
  Duration: 00:00:20.83, start: 0.000000, bitrate: 2057307 kb/s
    Stream #0:0: Video: rawvideo (I420 / 0x30323449), yuv420p(progressive), 4096x1744, SAR 1:1 DAR 256:109, 24 fps, 24 tbr, 24 tbn, 24 tbc
Output #0, matroska, to 'Output/theora/encoded/sintel8000k.mkv':
  Metadata:
    encoder         : Lavf57.57.100
    Stream #0:0: Video: theora (libtheora) (theo / 0x6F656874), yuv420p, 4096x1744 [SAR 1:1 DAR 256:109], q=2-31, 8000 kb/s, 24 fps, 1k tbn, 24 tbc
    Metadata:
      encoder         : Lavc57.66.101 libtheora
Stream mapping:
  Stream #0:0 -> #0:0 (rawvideo (native) -> theora (libtheora))
Press [q] to stop, [?] for help
frame=    3 fps=0.0 q=-0.0 size=       4kB time=00:00:00.08 bitrate= 380.5kbits/s speed=0.128x    frame=    5 fps=3.9 q=-0.0 size=       4kB time=00:00:00.16 bitrate= 190.2kbits/s speed=0.131x    frame=    7 fps=3.7 q=-0.0 size=       4kB time=00:00:00.25 bitrate= 127.3kbits/s speed=0.131x    frame=    9 fps=3.6 q=-0.0 size=       4kB time=00:00:00.33 bitrate=  95.7kbits/s speed=0.132x    frame=   11 fps=3.5 q=-0.0 size=       4kB time=00:00:00.41 bitrate=  76.5kbits/s speed=0.133x    frame=   13 fps=3.4 q=-0.0 size=     544kB time=00:00:00.50 bitrate=8889.4kbits/s speed=0.132x    frame=   16 fps=3.5 q=-0.0 size=     544kB time=00:00:00.62 bitrate=7114.4kbits/s speed=0.138x    frame=   18 fps=2.2 q=-0.0 size=     544kB time=00:00:00.70 bitrate=6281.5kbits/s speed=0.0882x    frame=   19 fps=1.6 q=-0.0 size=     544kB time=00:00:00.75 bitrate=5930.2kbits/s speed=0.0638x    frame=   20 fps=1.3 q=-0.0 size=     544kB time=00:00:00.79 bitrate=5616.1kbits/s speed=0.0521x    frame=   22 fps=1.4 q=-0.0 size=     544kB time=00:00:00.87 bitrate=5084.0kbits/s speed=0.0553x    frame=   24 fps=1.5 q=-0.0 size=     544kB time=00:00:00.95 bitrate=4644.0kbits/s speed=0.0582x    frame=   27 fps=1.6 q=-0.0 size=    1050kB time=00:00:01.08 bitrate=7938.6kbits/s speed=0.0629x    frame=   29 fps=1.6 q=-0.0 size=    1050kB time=00:00:01.16 bitrate=7367.7kbits/s speed=0.0655x    frame=   31 fps=1.7 q=-0.0 size=    1050kB time=00:00:01.25 bitrate=6878.8kbits/s speed=0.0678x    frame=   33 fps=1.7 q=-0.0 size=    1050kB time=00:00:01.33 bitrate=6450.8kbits/s speed=0.07x    frame=   35 fps=1.8 q=-0.0 size=    1050kB time=00:00:01.41 bitrate=6068.7kbits/s speed=0.072x    frame=   37 fps=1.8 q=-0.0 size=    1478kB time=00:00:01.50 bitrate=8068.0kbits/s speed=0.0739x    frame=   40 fps=1.9 q=-0.0 size=    1478kB time=00:00:01.62 bitrate=7447.8kbits/s speed=0.0771x    frame=   42 fps=1.9 q=-0.0 size=    1478kB time=00:00:01.70 bitrate=7086.1kbits/s speed=0.0787x    frame=   44 fps=2.0 q=-0.0 size=    1478kB time=00:00:01.79 bitrate=6754.1kbits/s speed=0.0803x    frame=   46 fps=2.0 q=-0.0 size=    1478kB time=00:00:01.87 bitrate=6455.3kbits/s speed=0.0817x    frame=   48 fps=2.0 q=-0.0 size=    1478kB time=00:00:01.95 bitrate=6181.8kbits/s speed=0.0831x    frame=   51 fps=2.1 q=-0.0 size=    1938kB time=00:00:02.08 bitrate=7620.0kbits/s speed=0.0857x    frame=   53 fps=2.1 q=-0.0 size=    1938kB time=00:00:02.16 bitrate=7324.7kbits/s speed=0.0869x    frame=   55 fps=2.1 q=-0.0 size=    1938kB time=00:00:02.25 bitrate=7054.6kbits/s speed=0.0879x    frame=   57 fps=2.2 q=-0.0 size=    2324kB time=00:00:02.33 bitrate=8157.6kbits/s speed=0.089x    frame=   59 fps=2.2 q=-0.0 size=    2324kB time=00:00:02.41 bitrate=7874.2kbits/s speed=0.0898x    frame=   61 fps=2.2 q=-0.0 size=    2324kB time=00:00:02.50 bitrate=7612.9kbits/s speed=0.0907x    frame=   63 fps=2.2 q=-0.0 size=    2324kB time=00:00:02.58 bitrate=7368.4kbits/s speed=0.0916x    frame=   65 fps=2.3 q=-0.0 size=    2324kB time=00:00:02.66 bitrate=7136.4kbits/s speed=0.0925x    frame=   67 fps=2.3 q=-0.0 size=    2719kB time=00:00:02.75 bitrate=8097.6kbits/s speed=0.093x    frame=   69 fps=2.3 q=-0.0 size=    2780kB time=00:00:02.83 bitrate=8037.0kbits/s speed=0.0937x    frame=   71 fps=2.3 q=-0.0 size=    2879kB time=00:00:02.91 bitrate=8081.2kbits/s speed=0.0943x    frame=   73 fps=2.3 q=-0.0 size=    2914kB time=00:00:03.00 bitrate=7954.0kbits/s speed=0.0947x    frame=   75 fps=2.3 q=-0.0 size=    3009kB time=00:00:03.08 bitrate=7993.0kbits/s speed=0.0955x    frame=   77 fps=2.3 q=-0.0 size=    3073kB time=00:00:03.16 bitrate=7946.5kbits/s speed=0.0958x    frame=   79 fps=2.3 q=-0.0 size=    3139kB time=00:00:03.25 bitrate=7910.0kbits/s speed=0.0962x    frame=   80 fps=2.3 q=-0.0 size=    3175kB time=00:00:03.29 bitrate=7897.4kbits/s speed=0.0958x    frame=   82 fps=2.3 q=-0.0 size=    3246kB time=00:00:03.37 bitrate=7875.8kbits/s speed=0.0961x    frame=   84 fps=2.3 q=-0.0 size=    3326kB time=00:00:03.45 bitrate=7876.1kbits/s speed=0.0964x    frame=   86 fps=2.3 q=-0.0 size=    3404kB time=00:00:03.54 bitrate=7870.8kbits/s speed=0.0966x    frame=   88 fps=2.4 q=-0.0 size=    3478kB time=00:00:03.62 bitrate=7857.1kbits/s speed=0.0969x    frame=   90 fps=2.4 q=-0.0 size=    3560kB time=00:00:03.70 bitrate=7861.9kbits/s speed=0.0971x    frame=   92 fps=2.4 q=-0.0 size=    3648kB time=00:00:03.79 bitrate=7879.5kbits/s speed=0.0974x    frame=   94 fps=2.4 q=-0.0 size=    3695kB time=00:00:03.87 bitrate=7808.6kbits/s speed=0.0976x    frame=   96 fps=2.4 q=-0.0 size=    3780kB time=00:00:03.95 bitrate=7820.6kbits/s speed=0.0979x    frame=   98 fps=2.4 q=-0.0 size=    3869kB time=00:00:04.04 bitrate=7838.5kbits/s speed=0.0981x    frame=  100 fps=2.4 q=-0.0 size=    3869kB time=00:00:04.12 bitrate=7680.9kbits/s speed=0.0987x    frame=  102 fps=2.4 q=-0.0 size=    4048kB time=00:00:04.20 bitrate=7877.9kbits/s speed=0.0989x    frame=  104 fps=2.4 q=-0.0 size=    4048kB time=00:00:04.29 bitrate=7723.8kbits/s speed=0.0994x    frame=  106 fps=2.4 q=-0.0 size=    4264kB time=00:00:04.37 bitrate=7982.2kbits/s speed=0.0999x    frame=  108 fps=2.4 q=-0.0 size=    4264kB time=00:00:04.45 bitrate=7833.6kbits/s speed= 0.1x    frame=  110 fps=2.4 q=-0.0 size=    4264kB time=00:00:04.54 bitrate=7688.8kbits/s speed=0.101x    frame=  112 fps=2.4 q=-0.0 size=    4514kB time=00:00:04.62 bitrate=7993.5kbits/s speed=0.101x    frame=  114 fps=2.5 q=-0.0 size=    4514kB time=00:00:04.70 bitrate=7852.6kbits/s speed=0.101x    frame=  116 fps=2.5 q=-0.0 size=    4670kB time=00:00:04.79 bitrate=7981.5kbits/s speed=0.102x    frame=  118 fps=2.5 q=-0.0 size=    4670kB time=00:00:04.87 bitrate=7845.6kbits/s speed=0.102x    frame=  120 fps=2.5 q=-0.0 size=    4670kB time=00:00:04.95 bitrate=7714.3kbits/s speed=0.102x    frame=  122 fps=2.5 q=-0.0 size=    4670kB time=00:00:05.04 bitrate=7585.8kbits/s speed=0.103x    frame=  124 fps=2.5 q=-0.0 size=    4670kB time=00:00:05.12 bitrate=7463.0kbits/s speed=0.103x    frame=  126 fps=2.5 q=-0.0 size=    5174kB time=00:00:05.20 bitrate=8137.5kbits/s speed=0.103x    frame=  128 fps=2.5 q=-0.0 size=    5298kB time=00:00:05.29 bitrate=8199.2kbits/s speed=0.103x    frame=  130 fps=2.5 q=-0.0 size=    5421kB time=00:00:05.37 bitrate=8260.5kbits/s speed=0.103x    frame=  132 fps=2.5 q=-0.0 size=    5557kB time=00:00:05.45 bitrate=8338.8kbits/s speed=0.103x    frame=  134 fps=2.5 q=-0.0 size=    5702kB time=00:00:05.54 bitrate=8426.6kbits/s speed=0.103x    frame=  136 fps=2.5 q=-0.0 size=    5842kB time=00:00:05.62 bitrate=8506.8kbits/s speed=0.103x    frame=  138 fps=2.5 q=-0.0 size=    5977kB time=00:00:05.70 bitrate=8577.0kbits/s speed=0.103x    frame=  140 fps=2.5 q=-0.0 size=    6044kB time=00:00:05.79 bitrate=8547.2kbits/s speed=0.103x    frame=  142 fps=2.5 q=-0.0 size=    6167kB time=00:00:05.87 bitrate=8597.1kbits/s speed=0.104x    frame=  144 fps=2.5 q=-0.0 size=    6167kB time=00:00:05.95 bitrate=8477.3kbits/s speed=0.104x    frame=  146 fps=2.5 q=-0.0 size=    6167kB time=00:00:06.04 bitrate=8359.5kbits/s speed=0.104x    frame=  148 fps=2.5 q=-0.0 size=    6167kB time=00:00:06.12 bitrate=8246.2kbits/s speed=0.105x    frame=  150 fps=2.5 q=-0.0 size=    6167kB time=00:00:06.20 bitrate=8136.0kbits/s speed=0.105x    frame=  152 fps=2.5 q=-0.0 size=    6167kB time=00:00:06.29 bitrate=8027.4kbits/s speed=0.105x    frame=  155 fps=2.6 q=-0.0 size=    6666kB time=00:00:06.41 bitrate=8508.7kbits/s speed=0.106x    frame=  157 fps=2.6 q=-0.0 size=    6811kB time=00:00:06.50 bitrate=8583.2kbits/s speed=0.106x    frame=  159 fps=2.6 q=-0.0 size=    6811kB time=00:00:06.58 bitrate=8475.0kbits/s speed=0.106x    frame=  161 fps=2.6 q=-0.0 size=    6811kB time=00:00:06.66 bitrate=8368.2kbits/s speed=0.107x    frame=  163 fps=2.6 q=-0.0 size=    6996kB time=00:00:06.75 bitrate=8489.9kbits/s speed=0.107x    frame=  165 fps=2.6 q=-0.0 size=    7067kB time=00:00:06.83 bitrate=8471.7kbits/s speed=0.107x    frame=  167 fps=2.6 q=-0.0 size=    7140kB time=00:00:06.91 bitrate=8455.0kbits/s speed=0.107x    frame=  169 fps=2.6 q=-0.0 size=    7218kB time=00:00:07.00 bitrate=8446.3kbits/s speed=0.107x    frame=  171 fps=2.6 q=-0.0 size=    7298kB time=00:00:07.08 bitrate=8439.0kbits/s speed=0.107x    frame=  173 fps=2.6 q=-0.0 size=    7374kB time=00:00:07.16 bitrate=8427.6kbits/s speed=0.107x    frame=  175 fps=2.6 q=-0.0 size=    7452kB time=00:00:07.25 bitrate=8418.7kbits/s speed=0.107x    frame=  177 fps=2.6 q=-0.0 size=    7528kB time=00:00:07.33 bitrate=8409.1kbits/s speed=0.107x    frame=  179 fps=2.6 q=-0.0 size=    7596kB time=00:00:07.41 bitrate=8389.1kbits/s speed=0.108x    frame=  181 fps=2.6 q=-0.0 size=    7596kB time=00:00:07.50 bitrate=8296.3kbits/s speed=0.108x    frame=  183 fps=2.6 q=-0.0 size=    7737kB time=00:00:07.58 bitrate=8357.7kbits/s speed=0.108x    frame=  185 fps=2.6 q=-0.0 size=    7777kB time=00:00:07.66 bitrate=8308.3kbits/s speed=0.108x    frame=  187 fps=2.6 q=-0.0 size=    7777kB time=00:00:07.75 bitrate=8219.3kbits/s speed=0.108x    frame=  189 fps=2.6 q=-0.0 size=    7777kB time=00:00:07.83 bitrate=8132.3kbits/s speed=0.108x    frame=  191 fps=2.6 q=-0.0 size=    7777kB time=00:00:07.91 bitrate=8046.0kbits/s speed=0.109x    frame=  193 fps=2.6 q=-0.0 size=    8110kB time=00:00:08.00 bitrate=8303.6kbits/s speed=0.109x    frame=  195 fps=2.6 q=-0.0 size=    8203kB time=00:00:08.08 bitrate=8312.4kbits/s speed=0.109x    frame=  197 fps=2.6 q=-0.0 size=    8298kB time=00:00:08.16 bitrate=8322.6kbits/s speed=0.109x    frame=  199 fps=2.6 q=-0.0 size=    8394kB time=00:00:08.25 bitrate=8333.8kbits/s speed=0.109x    frame=  201 fps=2.6 q=-0.0 size=    8497kB time=00:00:08.33 bitrate=8352.3kbits/s speed=0.109x    frame=  203 fps=2.6 q=-0.0 size=    8612kB time=00:00:08.41 bitrate=8381.1kbits/s speed=0.109x    frame=  205 fps=2.6 q=-0.0 size=    8728kB time=00:00:08.50 bitrate=8410.5kbits/s speed=0.109x    frame=  207 fps=2.6 q=-0.0 size=    8840kB time=00:00:08.58 bitrate=8436.2kbits/s speed=0.109x    frame=  209 fps=2.6 q=-0.0 size=    8956kB time=00:00:08.66 bitrate=8464.0kbits/s speed=0.109x    frame=  211 fps=2.6 q=-0.0 size=    9016kB time=00:00:08.75 bitrate=8440.3kbits/s speed=0.108x    frame=  213 fps=2.6 q=-0.0 size=    9016kB time=00:00:08.83 bitrate=8361.0kbits/s speed=0.109x    frame=  215 fps=2.6 q=-0.0 size=    9016kB time=00:00:08.91 bitrate=8282.2kbits/s speed=0.109x    frame=  217 fps=2.6 q=-0.0 size=    9016kB time=00:00:09.00 bitrate=8205.9kbits/s speed=0.109x    frame=  219 fps=2.6 q=-0.0 size=    9016kB time=00:00:09.08 bitrate=8130.9kbits/s speed=0.109x    frame=  221 fps=2.6 q=-0.0 size=    9016kB time=00:00:09.16 bitrate=8056.4kbits/s speed=0.109x    frame=  224 fps=2.6 q=-0.0 size=    9541kB time=00:00:09.29 bitrate=8410.2kbits/s speed=0.11x    frame=  226 fps=2.7 q=-0.0 size=    9541kB time=00:00:09.37 bitrate=8335.8kbits/s speed=0.11x    frame=  228 fps=2.7 q=-0.0 size=    9541kB time=00:00:09.45 bitrate=8262.6kbits/s speed=0.11x    frame=  230 fps=2.7 q=-0.0 size=    9541kB time=00:00:09.54 bitrate=8189.9kbits/s speed=0.111x    frame=  232 fps=2.7 q=-0.0 size=    9541kB time=00:00:09.62 bitrate=8119.3kbits/s speed=0.111x    frame=  234 fps=2.7 q=-0.0 size=    9886kB time=00:00:09.70 bitrate=8341.0kbits/s speed=0.111x    frame=  236 fps=2.7 q=-0.0 size=    9886kB time=00:00:09.79 bitrate=8269.5kbits/s speed=0.111x    frame=  238 fps=2.7 q=-0.0 size=    9886kB time=00:00:09.87 bitrate=8200.0kbits/s speed=0.111x    frame=  240 fps=2.7 q=-0.0 size=    9886kB time=00:00:09.95 bitrate=8131.6kbits/s speed=0.112x    frame=  242 fps=2.7 q=-0.0 size=   10303kB time=00:00:10.04 bitrate=8404.3kbits/s speed=0.112x    frame=  244 fps=2.7 q=-0.0 size=   10303kB time=00:00:10.12 bitrate=8335.5kbits/s speed=0.112x    frame=  246 fps=2.7 q=-0.0 size=   10303kB time=00:00:10.20 bitrate=8267.7kbits/s speed=0.112x    frame=  248 fps=2.7 q=-0.0 size=   10303kB time=00:00:10.29 bitrate=8200.2kbits/s speed=0.112x    frame=  250 fps=2.7 q=-0.0 size=   10303kB time=00:00:10.37 bitrate=8134.6kbits/s speed=0.112x    frame=  252 fps=2.7 q=-0.0 size=   10303kB time=00:00:10.45 bitrate=8070.1kbits/s speed=0.112x    frame=  254 fps=2.7 q=-0.0 size=   10901kB time=00:00:10.54 bitrate=8470.0kbits/s speed=0.112x    frame=  257 fps=2.7 q=-0.0 size=   10901kB time=00:00:10.66 bitrate=8370.8kbits/s speed=0.113x    frame=  259 fps=2.7 q=-0.0 size=   10901kB time=00:00:10.75 bitrate=8306.1kbits/s speed=0.113x    frame=  261 fps=2.7 q=-0.0 size=   10901kB time=00:00:10.83 bitrate=8242.5kbits/s speed=0.113x    frame=  263 fps=2.7 q=-0.0 size=   10901kB time=00:00:10.91 bitrate=8179.1kbits/s speed=0.113x    frame=  265 fps=2.7 q=-0.0 size=   10901kB time=00:00:11.00 bitrate=8117.4kbits/s speed=0.113x    frame=  268 fps=2.7 q=-0.0 size=   11333kB time=00:00:11.12 bitrate=8344.5kbits/s speed=0.114x    frame=  270 fps=2.7 q=-0.0 size=   11333kB time=00:00:11.20 bitrate=8282.7kbits/s speed=0.114x    frame=  272 fps=2.7 q=-0.0 size=   11333kB time=00:00:11.29 bitrate=8221.1kbits/s speed=0.114x    frame=  274 fps=2.7 q=-0.0 size=   11333kB time=00:00:11.37 bitrate=8161.1kbits/s speed=0.114x    frame=  276 fps=2.8 q=-0.0 size=   11333kB time=00:00:11.45 bitrate=8102.0kbits/s speed=0.114x    frame=  278 fps=2.8 q=-0.0 size=   11652kB time=00:00:11.54 bitrate=8269.2kbits/s speed=0.114x    frame=  280 fps=2.8 q=-0.0 size=   11652kB time=00:00:11.62 bitrate=8210.2kbits/s speed=0.115x    frame=  282 fps=2.8 q=-0.0 size=   11652kB time=00:00:11.70 bitrate=8152.0kbits/s speed=0.115x    frame=  284 fps=2.8 q=-0.0 size=   11652kB time=00:00:11.79 bitrate=8093.9kbits/s speed=0.115x    frame=  286 fps=2.8 q=-0.0 size=   11652kB time=00:00:11.87 bitrate=8037.3kbits/s speed=0.115x    frame=  288 fps=2.8 q=-0.0 size=   11652kB time=00:00:11.95 bitrate=7981.6kbits/s speed=0.115x    frame=  290 fps=2.8 q=-0.0 size=   12093kB time=00:00:12.04 bitrate=8226.1kbits/s speed=0.115x    frame=  293 fps=2.8 q=-0.0 size=   12093kB time=00:00:12.16 bitrate=8141.6kbits/s speed=0.116x    frame=  295 fps=2.8 q=-0.0 size=   12093kB time=00:00:12.25 bitrate=8086.4kbits/s speed=0.116x    frame=  297 fps=2.8 q=-0.0 size=   12093kB time=00:00:12.33 bitrate=8032.0kbits/s speed=0.116x    frame=  299 fps=2.8 q=-0.0 size=   12093kB time=00:00:12.41 bitrate=7977.7kbits/s speed=0.116x    frame=  301 fps=2.8 q=-0.0 size=   12093kB time=00:00:12.50 bitrate=7924.7kbits/s speed=0.116x    frame=  304 fps=2.8 q=-0.0 size=   12475kB time=00:00:12.62 bitrate=8094.3kbits/s speed=0.116x    frame=  306 fps=2.8 q=-0.0 size=   12475kB time=00:00:12.70 bitrate=8041.5kbits/s speed=0.117x    frame=  308 fps=2.8 q=-0.0 size=   12475kB time=00:00:12.79 bitrate=7988.7kbits/s speed=0.117x    frame=  310 fps=2.8 q=-0.0 size=   12475kB time=00:00:12.87 bitrate=7937.2kbits/s speed=0.117x    frame=  312 fps=2.8 q=-0.0 size=   12475kB time=00:00:12.95 bitrate=7886.3kbits/s speed=0.117x    frame=  314 fps=2.8 q=-0.0 size=   12914kB time=00:00:13.04 bitrate=8111.0kbits/s speed=0.117x    frame=  316 fps=2.8 q=-0.0 size=   12914kB time=00:00:13.12 bitrate=8059.7kbits/s speed=0.117x    frame=  318 fps=2.8 q=-0.0 size=   12914kB time=00:00:13.20 bitrate=8009.1kbits/s speed=0.117x    frame=  320 fps=2.8 q=-0.0 size=   12914kB time=00:00:13.29 bitrate=7958.5kbits/s speed=0.117x    frame=  322 fps=2.8 q=-0.0 size=   12914kB time=00:00:13.37 bitrate=7909.1kbits/s speed=0.117x    frame=  324 fps=2.8 q=-0.0 size=   12914kB time=00:00:13.45 bitrate=7860.3kbits/s speed=0.117x    frame=  326 fps=2.8 q=-0.0 size=   13404kB time=00:00:13.54 bitrate=8107.9kbits/s speed=0.117x    frame=  329 fps=2.8 q=-0.0 size=   13404kB time=00:00:13.66 bitrate=8033.7kbits/s speed=0.117x    frame=  331 fps=2.8 q=-0.0 size=   13404kB time=00:00:13.75 bitrate=7985.2kbits/s speed=0.117x    frame=  333 fps=2.8 q=-0.0 size=   13404kB time=00:00:13.83 bitrate=7937.3kbits/s speed=0.117x    frame=  335 fps=2.8 q=-0.0 size=   13404kB time=00:00:13.91 bitrate=7889.4kbits/s speed=0.117x    frame=  337 fps=2.8 q=-0.0 size=   13404kB time=00:00:14.00 bitrate=7842.7kbits/s speed=0.117x    frame=  339 fps=2.8 q=-0.0 size=   13887kB time=00:00:14.08 bitrate=8077.6kbits/s speed=0.117x    frame=  341 fps=2.8 q=-0.0 size=   13887kB time=00:00:14.16 bitrate=8029.7kbits/s speed=0.117x    frame=  343 fps=2.8 q=-0.0 size=   13887kB time=00:00:14.25 bitrate=7983.0kbits/s speed=0.117x    frame=  345 fps=2.8 q=-0.0 size=   13887kB time=00:00:14.33 bitrate=7936.7kbits/s speed=0.117x    frame=  347 fps=2.8 q=-0.0 size=   13887kB time=00:00:14.41 bitrate=7890.5kbits/s speed=0.117x    frame=  349 fps=2.8 q=-0.0 size=   13887kB time=00:00:14.50 bitrate=7845.3kbits/s speed=0.117x    frame=  351 fps=2.8 q=-0.0 size=   14350kB time=00:00:14.58 bitrate=8060.4kbits/s speed=0.118x    frame=  353 fps=2.8 q=-0.0 size=   14350kB time=00:00:14.66 bitrate=8014.2kbits/s speed=0.118x    frame=  355 fps=2.8 q=-0.0 size=   14350kB time=00:00:14.75 bitrate=7969.1kbits/s speed=0.118x    frame=  357 fps=2.8 q=-0.0 size=   14350kB time=00:00:14.83 bitrate=7924.6kbits/s speed=0.118x    frame=  359 fps=2.8 q=-0.0 size=   14350kB time=00:00:14.91 bitrate=7879.9kbits/s speed=0.118x    frame=  361 fps=2.8 q=-0.0 size=   14350kB time=00:00:15.00 bitrate=7836.3kbits/s speed=0.118x    frame=  363 fps=2.8 q=-0.0 size=   15031kB time=00:00:15.08 bitrate=8163.0kbits/s speed=0.118x    frame=  365 fps=2.8 q=-0.0 size=   15031kB time=00:00:15.16 bitrate=8117.8kbits/s speed=0.118x    frame=  367 fps=2.8 q=-0.0 size=   15031kB time=00:00:15.25 bitrate=8073.6kbits/s speed=0.118x    frame=  369 fps=2.8 q=-0.0 size=   15031kB time=00:00:15.33 bitrate=8029.9kbits/s speed=0.118x    frame=  371 fps=2.8 q=-0.0 size=   15031kB time=00:00:15.41 bitrate=7986.2kbits/s speed=0.118x    frame=  373 fps=2.8 q=-0.0 size=   15031kB time=00:00:15.50 bitrate=7943.4kbits/s speed=0.118x    frame=  375 fps=2.8 q=-0.0 size=   15495kB time=00:00:15.58 bitrate=8145.2kbits/s speed=0.118x    frame=  378 fps=2.8 q=-0.0 size=   15495kB time=00:00:15.70 bitrate=8080.4kbits/s speed=0.118x    frame=  380 fps=2.8 q=-0.0 size=   15495kB time=00:00:15.79 bitrate=8037.4kbits/s speed=0.118x    frame=  382 fps=2.8 q=-0.0 size=   15495kB time=00:00:15.87 bitrate=7995.4kbits/s speed=0.118x    frame=  384 fps=2.8 q=-0.0 size=   15495kB time=00:00:15.95 bitrate=7953.8kbits/s speed=0.118x    frame=  386 fps=2.8 q=-0.0 size=   15495kB time=00:00:16.04 bitrate=7912.2kbits/s speed=0.118x    frame=  388 fps=2.8 q=-0.0 size=   15935kB time=00:00:16.12 bitrate=8094.9kbits/s speed=0.118x    frame=  390 fps=2.8 q=-0.0 size=   15935kB time=00:00:16.20 bitrate=8053.5kbits/s speed=0.118x    frame=  392 fps=2.8 q=-0.0 size=   15935kB time=00:00:16.29 bitrate=8011.9kbits/s speed=0.118x    frame=  394 fps=2.8 q=-0.0 size=   15935kB time=00:00:16.37 bitrate=7971.3kbits/s speed=0.118x    frame=  396 fps=2.8 q=-0.0 size=   15935kB time=00:00:16.45 bitrate=7931.1kbits/s speed=0.118x    frame=  398 fps=2.8 q=-0.0 size=   15935kB time=00:00:16.54 bitrate=7890.9kbits/s speed=0.118x    frame=  401 fps=2.8 q=-0.0 size=   16621kB time=00:00:16.66 bitrate=8168.8kbits/s speed=0.118x    frame=  403 fps=2.9 q=-0.0 size=   16621kB time=00:00:16.75 bitrate=8128.4kbits/s speed=0.118x    frame=  405 fps=2.9 q=-0.0 size=   16621kB time=00:00:16.83 bitrate=8088.3kbits/s speed=0.119x    frame=  407 fps=2.9 q=-0.0 size=   16621kB time=00:00:16.91 bitrate=8048.1kbits/s speed=0.119x    frame=  409 fps=2.9 q=-0.0 size=   16621kB time=00:00:17.00 bitrate=8008.8kbits/s speed=0.119x    frame=  411 fps=2.9 q=-0.0 size=   17034kB time=00:00:17.08 bitrate=8168.3kbits/s speed=0.119x    frame=  414 fps=2.9 q=-0.0 size=   17034kB time=00:00:17.20 bitrate=8108.9kbits/s speed=0.119x    frame=  416 fps=2.9 q=-0.0 size=   17034kB time=00:00:17.29 bitrate=8069.5kbits/s speed=0.119x    frame=  418 fps=2.9 q=-0.0 size=   17034kB time=00:00:17.37 bitrate=8031.0kbits/s speed=0.119x    frame=  420 fps=2.9 q=-0.0 size=   17281kB time=00:00:17.45 bitrate=8108.6kbits/s speed=0.119x    frame=  422 fps=2.9 q=-0.0 size=   17281kB time=00:00:17.54 bitrate=8069.8kbits/s speed=0.119x    frame=  424 fps=2.9 q=-0.0 size=   17281kB time=00:00:17.62 bitrate=8031.8kbits/s speed=0.119x    frame=  426 fps=2.9 q=-0.0 size=   17281kB time=00:00:17.70 bitrate=7994.2kbits/s speed=0.119x    frame=  428 fps=2.9 q=-0.0 size=   17281kB time=00:00:17.79 bitrate=7956.4kbits/s speed=0.119x    frame=  430 fps=2.9 q=-0.0 size=   17281kB time=00:00:17.87 bitrate=7919.5kbits/s speed=0.119x    frame=  432 fps=2.9 q=-0.0 size=   17907kB time=00:00:17.95 bitrate=8168.2kbits/s speed=0.119x    frame=  434 fps=2.9 q=-0.0 size=   17907kB time=00:00:18.04 bitrate=8130.2kbits/s speed=0.12x    frame=  436 fps=2.9 q=-0.0 size=   17907kB time=00:00:18.12 bitrate=8093.0kbits/s speed=0.12x    frame=  438 fps=2.9 q=-0.0 size=   17907kB time=00:00:18.20 bitrate=8056.1kbits/s speed=0.12x    frame=  440 fps=2.9 q=-0.0 size=   17907kB time=00:00:18.29 bitrate=8019.1kbits/s speed=0.12x    frame=  442 fps=2.9 q=-0.0 size=   17907kB time=00:00:18.37 bitrate=7982.9kbits/s speed=0.12x    frame=  444 fps=2.9 q=-0.0 size=   18239kB time=00:00:18.45 bitrate=8094.5kbits/s speed=0.12x    frame=  446 fps=2.9 q=-0.0 size=   18239kB time=00:00:18.54 bitrate=8057.9kbits/s speed=0.12x    frame=  448 fps=2.9 q=-0.0 size=   18239kB time=00:00:18.62 bitrate=8022.0kbits/s speed=0.12x    frame=  450 fps=2.9 q=-0.0 size=   18239kB time=00:00:18.70 bitrate=7986.4kbits/s speed=0.12x    frame=  452 fps=2.9 q=-0.0 size=   18239kB time=00:00:18.79 bitrate=7950.7kbits/s speed=0.12x    frame=  454 fps=2.9 q=-0.0 size=   18239kB time=00:00:18.87 bitrate=7915.7kbits/s speed=0.12x    frame=  456 fps=2.9 q=-0.0 size=   18729kB time=00:00:18.95 bitrate=8092.5kbits/s speed=0.12x    frame=  458 fps=2.9 q=-0.0 size=   18729kB time=00:00:19.04 bitrate=8056.8kbits/s speed=0.12x    frame=  460 fps=2.9 q=-0.0 size=   18729kB time=00:00:19.12 bitrate=8021.8kbits/s speed=0.12x    frame=  462 fps=2.9 q=-0.0 size=   18729kB time=00:00:19.20 bitrate=7987.2kbits/s speed=0.12x    frame=  464 fps=2.9 q=-0.0 size=   18729kB time=00:00:19.29 bitrate=7952.4kbits/s speed=0.12x    frame=  466 fps=2.9 q=-0.0 size=   18729kB time=00:00:19.37 bitrate=7918.3kbits/s speed=0.12x    frame=  468 fps=2.9 q=-0.0 size=   19206kB time=00:00:19.45 bitrate=8085.4kbits/s speed=0.121x    frame=  470 fps=2.9 q=-0.0 size=   19206kB time=00:00:19.54 bitrate=8050.6kbits/s speed=0.121x    frame=  472 fps=2.9 q=-0.0 size=   19206kB time=00:00:19.62 bitrate=8016.6kbits/s speed=0.12x    frame=  474 fps=2.9 q=-0.0 size=   19206kB time=00:00:19.70 bitrate=7982.8kbits/s speed=0.12x    frame=  476 fps=2.9 q=-0.0 size=   19206kB time=00:00:19.79 bitrate=7948.9kbits/s speed=0.121x    frame=  478 fps=2.9 q=-0.0 size=   19206kB time=00:00:19.87 bitrate=7915.7kbits/s speed=0.121x    frame=  480 fps=2.9 q=-0.0 size=   19669kB time=00:00:19.95 bitrate=8073.1kbits/s speed=0.121x    frame=  482 fps=2.9 q=-0.0 size=   19669kB time=00:00:20.04 bitrate=8039.3kbits/s speed=0.121x    frame=  484 fps=2.9 q=-0.0 size=   19669kB time=00:00:20.12 bitrate=8006.1kbits/s speed=0.121x    frame=  486 fps=2.9 q=-0.0 size=   19669kB time=00:00:20.20 bitrate=7973.2kbits/s speed=0.121x    frame=  488 fps=2.9 q=-0.0 size=   19669kB time=00:00:20.29 bitrate=7940.2kbits/s speed=0.121x    frame=  490 fps=2.9 q=-0.0 size=   19669kB time=00:00:20.37 bitrate=7907.9kbits/s speed=0.121x    frame=  492 fps=2.9 q=-0.0 size=   20117kB time=00:00:20.45 bitrate=8054.9kbits/s speed=0.121x    frame=  494 fps=2.9 q=-0.0 size=   20117kB time=00:00:20.54 bitrate=8022.0kbits/s speed=0.121x    frame=  496 fps=2.9 q=-0.0 size=   20117kB time=00:00:20.62 bitrate=7989.7kbits/s speed=0.121x    frame=  498 fps=2.9 q=-0.0 size=   20117kB time=00:00:20.70 bitrate=7957.7kbits/s speed=0.121x    frame=  500 fps=2.9 q=-0.0 size=   20117kB time=00:00:20.79 bitrate=7925.5kbits/s speed=0.121x    frame=  500 fps=2.9 q=-0.0 Lsize=   20557kB time=00:00:20.79 bitrate=8099.1kbits/s speed=0.121x    
video:20545kB audio:0kB subtitle:0kB other streams:0kB global headers:3kB muxing overhead: 0.060248%
bench: utime=148.968s
bench: maxrss=240844kB
